<svg version="1.1" xmlns="http://www.w3.org/2000/svg" xmlns:xlink="http://www.w3.org/1999/xlink" width="640px" height="640px" viewBox="0,0,256,256"><g fill="#440000" fill-rule="nonzero" stroke="none" stroke-width="1" stroke-linecap="butt" stroke-linejoin="miter" stroke-miterlimit="10" stroke-dasharray="" stroke-dashoffset="0" font-family="none" font-weight="none" font-size="none" text-anchor="none" style="mix-blend-mode: normal"><g transform="scale(0.4,0.4)"><path d="M305,151.1l15,20.7l15,-20.7c25,-34.6 65.2,-55.1 107.9,-55.1c73.5,0 133.1,59.6 133.1,133.1v2.6c0,112.2 -139.9,242.5 -212.9,298.2c-12.4,9.4 -27.6,14.1 -43.1,14.1c-15.5,0 -30.8,-4.6 -43.1,-14.1c-73,-55.7 -212.9,-186 -212.9,-298.2v-2.6c0,-73.5 59.6,-133.1 133.1,-133.1c42.7,0 82.9,20.5 107.9,55.1z"></path></g></g></svg>